# xmcd CD database file
#
# Track frame offsets:
#	150
#	21050
#	42462
#	64437
#	86712
#	107825
#	129350
#	152112
#	179025
#	196337
#
# Disc length: 2901 seconds
#
# Revision: 0
# Processed by: cddbd v1.5.1PL0 Copyright (c) Steve Scherf et al.
# Submitted via: CDex 1.51
#
DISCID=8d0b530a
DTITLE=織田裕二 - River
DYEAR=1995
DGENRE=JPop
TTITLE0=愛までもうすぐだから
TTITLE1=う・ね・り
TTITLE2=日本の心
TTITLE3=太陽が目にしみる
TTITLE4=思い出に吹かれて
TTITLE5=Storm
TTITLE6=I'll Be Back To You
TTITLE7=熱き砂漠の祭り
TTITLE8=当たって砕けろ
TTITLE9=恋にやぶれた花火の後に
EXTD=YEAR: 1995
EXTT0=
EXTT1=
EXTT2=
EXTT3=
EXTT4=
EXTT5=
EXTT6=
EXTT7=
EXTT8=
EXTT9=
PLAYORDER=
